<?xml version="1.0" standalone="no"?>
<!DOCTYPE svg PUBLIC "-//W3C//DTD SVG 20010904//EN"
 "http://www.w3.org/TR/2001/REC-SVG-20010904/DTD/svg10.dtd">
<svg version="1.0" xmlns="http://www.w3.org/2000/svg"
 width="700.000000pt" height="700.000000pt" viewBox="0 0 700.000000 700.000000"
 preserveAspectRatio="xMidYMid meet">
<metadata>
Created by potrace 1.14, written by Peter Selinger 2001-2017
</metadata>
<g transform="translate(0.000000,700.000000) scale(0.100000,-0.100000)"
fill="#000000" stroke="none">
<path d="M3011 5474 c0 -74 -7 -177 -17 -261 -3 -27 -10 -43 -19 -43 -24 0
-27 -18 -10 -72 14 -44 15 -72 8 -163 -8 -104 -9 -110 -30 -113 -28 -4 -30
-36 -7 -90 13 -30 15 -58 9 -142 -11 -185 -14 -198 -44 -202 -36 -4 -39 -41
-9 -115 l24 -59 -17 -215 c-10 -117 -18 -220 -18 -226 -1 -8 -15 -13 -37 -13
l-37 0 6 -52 c3 -29 16 -77 28 -106 l22 -54 -32 -406 c-17 -224 -31 -415 -31
-424 0 -16 -12 -18 -105 -18 -105 0 -105 0 -105 24 0 14 5 28 10 31 8 5 8 11
0 20 -15 19 -27 395 -12 395 7 0 12 7 12 15 0 8 -4 15 -10 15 -6 0 -10 47 -10
120 0 73 4 120 10 120 16 0 12 27 -5 34 -13 5 -15 32 -14 176 l2 170 29 0 c37
0 33 24 -5 28 -23 3 -26 9 -33 58 -5 43 -10 54 -25 54 -15 0 -19 11 -25 60
l-7 60 -42 0 c-48 0 -55 11 -55 88 0 31 -4 42 -15 42 -10 0 -15 10 -15 30 l0
30 -85 0 c-78 0 -85 2 -85 20 0 16 -7 20 -31 20 -17 0 -49 13 -74 30 -24 17
-48 30 -53 30 -5 0 -16 10 -24 22 -12 18 -24 22 -68 22 -34 0 -56 -5 -64 -15
-24 -30 -126 -89 -156 -89 -23 0 -30 -4 -30 -20 0 -18 -7 -20 -85 -20 l-85 0
0 -30 c0 -19 -5 -30 -14 -30 -10 0 -16 -19 -21 -65 l-7 -65 -43 0 c-40 0 -43
-2 -49 -31 -3 -17 -6 -44 -6 -60 0 -22 -5 -29 -19 -29 -20 0 -31 -26 -31 -77
0 -30 -3 -33 -30 -33 -20 0 -30 -5 -30 -15 0 -10 10 -15 30 -15 28 0 30 -3 30
-34 0 -19 -5 -38 -10 -41 -8 -5 -7 -11 1 -21 15 -18 5 -247 -11 -252 -13 -5
-13 -32 0 -32 15 0 13 -233 -2 -248 -10 -10 -10 -15 1 -21 10 -7 12 -44 6
-197 -4 -104 -12 -194 -17 -201 -5 -7 -5 -14 2 -18 5 -3 10 -17 10 -31 l0 -24
-164 0 -164 0 -16 48 c-60 187 -116 531 -116 720 l0 52 -242 0 c-134 0 -314
-3 -400 -7 -154 -6 -158 -7 -187 -34 -27 -24 -31 -35 -31 -78 0 -28 5 -61 12
-75 7 -16 71 -65 175 -132 l164 -107 -23 -26 c-13 -14 -67 -73 -119 -131 -52
-58 -103 -116 -112 -130 -23 -34 -21 -77 6 -129 22 -44 23 -44 201 -115 98
-39 178 -75 178 -79 0 -5 -43 -81 -96 -171 -101 -171 -108 -193 -80 -251 27
-58 42 -64 234 -100 100 -19 186 -35 191 -35 15 0 11 -17 -51 -190 -33 -92
-60 -180 -60 -194 0 -37 24 -81 59 -105 27 -20 43 -21 230 -21 l201 0 -5 -22
c-3 -13 -16 -99 -30 -191 -28 -190 -25 -210 34 -260 42 -35 61 -35 268 10 95
20 175 34 178 32 2 -3 9 -90 15 -195 12 -205 16 -220 73 -254 53 -32 90 -25
269 52 93 39 171 69 174 65 3 -3 26 -86 51 -184 24 -98 52 -186 61 -197 27
-30 68 -46 114 -46 38 1 60 13 198 109 l155 109 87 -178 c89 -184 98 -195 166
-211 63 -14 90 3 225 146 71 74 132 135 135 135 4 0 56 -64 114 -143 59 -79
117 -152 129 -163 27 -24 115 -26 151 -2 13 9 69 86 124 172 54 85 103 156
108 156 4 0 54 -42 110 -93 198 -181 181 -170 243 -165 86 7 96 20 176 221 39
97 75 177 80 177 5 0 80 -43 167 -95 168 -101 193 -109 255 -79 58 27 64 41
100 239 19 104 37 190 40 193 2 3 82 -23 177 -57 95 -33 186 -61 202 -61 16 0
44 9 63 21 59 36 63 56 63 274 l0 195 23 -5 c12 -3 96 -16 187 -29 162 -24
166 -24 207 -6 44 19 83 69 83 105 0 11 -18 101 -39 200 -21 99 -38 181 -36
183 1 2 90 8 196 13 136 8 201 15 216 25 28 17 63 84 63 118 0 14 -34 103 -75
197 -41 95 -73 174 -71 177 3 2 84 24 182 48 97 25 186 50 196 55 25 13 57 84
58 124 0 23 -26 68 -96 170 -53 77 -103 150 -112 163 -14 22 -13 23 161 107
194 93 207 104 215 187 l5 51 -147 143 c-80 79 -146 145 -146 148 0 2 67 54
150 115 160 119 180 140 180 183 l0 28 -142 0 c-79 0 -275 -3 -435 -7 l-292
-6 6 -72 c5 -66 -10 -320 -26 -410 -6 -39 -7 -40 -53 -43 l-47 -3 -3 274 -3
274 -28 36 c-53 70 -60 72 -364 75 l-273 3 0 39 c0 53 -34 156 -70 213 -42 67
-119 139 -190 176 -63 34 -141 61 -176 61 -14 0 -24 8 -28 23 -8 35 -45 77
-66 77 -25 0 -57 -35 -65 -69 -5 -23 -13 -29 -60 -38 -125 -27 -265 -123 -333
-231 -38 -59 -72 -159 -72 -212 l0 -40 -277 0 c-293 0 -333 -5 -381 -45 -62
-52 -61 -51 -69 -544 l-6 -451 -59 0 c-32 0 -58 3 -58 8 0 4 -16 195 -34 425
l-33 418 24 66 c13 37 23 82 21 102 -3 31 -7 36 -30 39 -35 4 -33 -2 -52 253
-16 202 -16 207 4 265 26 73 23 108 -7 112 -13 2 -23 4 -24 5 -1 1 -7 67 -13
147 -11 120 -11 152 0 184 20 57 18 96 -5 96 -16 0 -19 13 -28 118 -7 91 -6
126 4 156 17 52 16 67 -5 73 -16 4 -19 24 -29 156 -6 84 -9 169 -6 190 l5 37
-100 0 -101 0 0 -76z m895 -1829 l25 -25 -3 -181 c-4 -220 4 -209 -147 -209
-148 0 -141 -11 -141 217 0 231 -5 223 140 223 94 0 103 -2 126 -25z m342 9
c21 -15 22 -20 22 -201 0 -234 7 -223 -138 -223 -149 0 -142 -12 -142 221 0
228 -6 219 140 219 70 0 101 -4 118 -16z m1292 -4 c19 -19 20 -33 20 -200 0
-228 5 -220 -145 -220 -150 0 -145 -8 -145 220 0 228 -5 220 145 220 92 0 108
-3 125 -20z m341 1 c23 -18 24 -25 27 -172 2 -84 1 -168 -3 -186 -10 -57 -25
-63 -142 -63 -150 0 -143 -11 -143 217 0 230 -5 223 139 223 82 0 103 -3 122
-19z m-3813 -30 c58 -29 109 -93 121 -153 7 -29 11 -193 11 -408 l0 -360 -240
0 -240 0 0 369 c0 240 4 372 10 376 6 4 8 11 4 16 -26 43 72 149 166 180 39
13 123 3 168 -20z m2845 -61 c72 -27 144 -91 173 -155 23 -49 24 -55 24 -377
l0 -328 -336 0 -335 0 3 333 c3 322 4 333 25 374 43 80 143 154 235 173 60 12
146 4 211 -20z m-1008 -435 c25 -24 25 -27 25 -192 0 -227 6 -217 -139 -221
-159 -4 -151 -15 -151 212 0 100 4 186 8 192 17 25 52 33 140 34 86 0 95 -2
117 -25z m348 6 c25 -20 25 -381 1 -405 -23 -23 -225 -23 -248 0 -14 14 -16
43 -14 207 l3 191 25 14 c34 17 210 12 233 -7z m1282 -6 c25 -24 25 -27 25
-197 0 -228 6 -218 -145 -218 -152 0 -145 -10 -145 221 l0 178 26 20 c23 18
41 21 121 21 86 0 96 -2 118 -25z m346 6 c23 -19 24 -24 27 -193 3 -232 9
-222 -137 -226 -159 -4 -151 -15 -151 213 0 231 -5 223 146 224 76 1 96 -2
115 -18z m74 -561 l-16 -30 -2440 0 -2439 0 -10 26 c-6 14 -10 27 -10 30 0 2
1109 4 2465 4 l2466 0 -16 -30z m-265 -517 c-1 -27 -298 -388 -363 -441 -13
-11 -68 -3 -344 52 -180 36 -343 66 -361 66 -38 0 -98 -23 -125 -48 -47 -42
-57 -85 -77 -320 -30 -346 -27 -331 -58 -343 -77 -30 -283 -83 -404 -104 -464
-81 -929 -38 -1368 127 -117 43 -381 170 -397 190 -6 7 -25 139 -43 293 -32
283 -43 330 -83 374 -27 29 -93 60 -129 61 -15 0 -123 -22 -241 -50 -118 -27
-220 -50 -228 -50 -12 0 -35 28 -137 168 l-24 32 2191 0 c1205 0 2191 -3 2191
-7z m-3819 -296 c126 -67 146 -238 37 -331 -93 -80 -228 -61 -299 42 -33 49
-39 144 -11 198 53 104 172 144 273 91z m3058 -271 c138 -72 150 -261 22 -351
-36 -25 -52 -30 -104 -30 -78 0 -131 26 -172 84 -27 38 -30 51 -30 116 0 67 3
76 31 111 39 49 74 74 115 84 41 11 102 4 138 -14z"/>
</g>
</svg>
