<?xml version="1.0" encoding="UTF-8"?>
<!-- Created with Inkscape (http://www.inkscape.org/) -->
<svg width="164.32mm" height="164.25mm" version="1.1" viewBox="0 0 164.32 164.25" xmlns="http://www.w3.org/2000/svg" xmlns:cc="http://creativecommons.org/ns#" xmlns:dc="http://purl.org/dc/elements/1.1/" xmlns:rdf="http://www.w3.org/1999/02/22-rdf-syntax-ns#" xmlns:xlink="http://www.w3.org/1999/xlink">
 <title>RustDelhi Logo</title>
 <defs>
  <linearGradient id="linearGradient2261" x1="1694.6" x2="1742.6" y1="4100.3" y2="7095.1" gradientTransform="matrix(.05091 0 0 .05091 23.43 -121.15)" gradientUnits="userSpaceOnUse">
   <stop stop-color="#ffc703" offset="0"/>
   <stop stop-color="#dc204d" offset="1"/>
  </linearGradient>
 </defs>
 <g transform="translate(-29.968 -81.426)">
  <circle cx="112.13" cy="163.55" r="67.449" fill="#f9f9f9" fill-opacity=".98755" stroke-width=".82745" style="font-variation-settings:'wght' 700"/>
  <g transform="matrix(.05091 0 0 .05091 23.43 -121.15)">
   <rect x="2869" y="5785.9" width="135.18" height="221.34" ry="0" fill="#1a1a1a" stroke-width="3.1196" style="font-variation-settings:'wght' 700"/>
   <path d="m2341.1 5209a35.023 68.138 0 0 0-33.02 45.621 246.69 231.16 0 0 0-212.97 228.05h-247.55a83.584 82.591 0 0 0-83.582 81.949l-3.4746 442.69h417.02v-333.24c0-55.937 68.895-122.27 154.07-122.27 85.172 0 153.42 66.333 153.42 122.27v333.24h412.42l-1.0137-442.68a83.126 82.138 0 0 0-83.125-81.951h-224.79a246.69 231.16 0 0 0-214.54-229.15 35.023 68.138 0 0 0-32.85-44.523zm-506.51 305.6h76.133c15.538 0 28.047 12.511 28.047 28.049v146.74c0 15.538-12.508 28.049-28.047 28.049h-76.133c-15.538 0-28.047-12.511-28.047-28.049v-146.74c0-15.538 12.508-28.049 28.047-28.049zm160.08 0h76.131c15.538 0 28.047 12.511 28.047 28.049v146.74c0 15.538-12.508 28.049-28.047 28.049h-76.131c-15.538 0-28.049-12.511-28.049-28.049v-146.74c0-15.538 12.51-28.049 28.049-28.049zm592.44 0h76.131c15.538 0 28.049 12.511 28.049 28.049v146.74c0 15.538-12.51 28.049-28.049 28.049h-76.131c-15.538 0-28.047-12.511-28.047-28.049v-146.74c0-15.538 12.508-28.049 28.047-28.049zm160.07 0h76.133c15.538 0 28.047 12.511 28.047 28.049v146.74c0 15.538-12.508 28.049-28.047 28.049h-76.133c-15.538 0-28.047-12.511-28.047-28.049v-146.74c0-15.538 12.509-28.049 28.047-28.049zm-912.59 240.62h76.133c15.538 0 28.047 12.508 28.047 28.047v146.74c0 15.538-12.508 28.049-28.047 28.049h-76.133c-15.538 0-28.047-12.51-28.047-28.049v-146.74c0-15.538 12.508-28.047 28.047-28.047zm160.08 0h76.131c15.538 0 28.047 12.508 28.047 28.047v146.74c0 15.538-12.508 28.049-28.047 28.049h-76.131c-15.538 0-28.049-12.51-28.049-28.049v-146.74c0-15.538 12.51-28.047 28.049-28.047zm592.44 0h76.131c15.538 0 28.049 12.508 28.049 28.047v146.74c0 15.538-12.51 28.049-28.049 28.049h-76.131c-15.538 0-28.047-12.51-28.047-28.049v-146.74c0-15.538 12.508-28.047 28.047-28.047zm160.07 0h76.133c15.538 0 28.047 12.508 28.047 28.047v146.74c0 15.538-12.508 28.049-28.047 28.049h-76.133c-15.538 0-28.047-12.51-28.047-28.049v-146.74c0-15.538 12.509-28.047 28.047-28.047z" fill="#1a1a1a" stroke-width="5.8708"/>
   <path d="m2122.7 5480.9a216.33 203.96 0 0 1 216.33-203.96 216.33 203.96 0 0 1 216.33 203.96" fill="#282828" stroke-width="2.2728" style="font-variation-settings:'wght' 700"/>
  </g>
  <rect x="54.671" y="185.97" width="114.91" height="11.256" fill="#1a1a1a" stroke-width=".13031" style="font-variation-settings:'wght' 700"/>
  <rect x="46.458" y="182.43" width="131.33" height="2.2561" fill="#1a1a1a" stroke-width=".062371" style="font-variation-settings:'wght' 700"/>
  <g transform="matrix(.021081 0 0 .021081 8.9318 27.483)">
   <g>
    <path d="m2501.6 6043.8-25.281 1413.3h431.32v-897.69c0-150.69 121.31-272 272-272 150.69 0 272 121.31 272 272v897.69h431.32l-25.281-1413.3z" fill="#282828" stroke-width="12.817"/>
    <path d="m2865.4 6191.5v1265.6h42.292v-897.69c0-150.69 121.31-272 272-272 150.69 0 272 121.31 272 272v897.69h42.267v-1265.6z" fill="#151515" stroke-width="13.251"/>
    <path d="m2497.2 6173.6 1364.1-2e-4 -2.7041-107.08h-1357.8z" fill="#282828" stroke-width="9.7184"/>
   </g>
   <g fill="#1a1a1a" stroke-linecap="round">
    <path d="m2501.6 6191.5h1356.1" stroke="#151515" stroke-width="35.832"/>
    <g stroke-width="23.193">
     <path d="m2531.1 6166.6h57.475v-57.522h-57.475v0.043z"/>
     <path d="m2626.4 6166.6h57.522v-57.522h-57.522v0.043z"/>
     <path d="m2721.7 6166.6h57.475v-57.522h-57.475v0.043z"/>
     <path d="m2816.9 6166.6h57.522v-57.522h-57.523v0.043z"/>
     <path d="m2912.3 6166.6h57.474v-57.522h-57.474v0.043z"/>
     <path d="m3007.6 6166.6h57.474v-57.522h-57.475v0.043z"/>
     <path d="m3102.8 6166.6h57.522v-57.522h-57.522v0.043z"/>
     <path d="m3198.2 6166.6h57.474v-57.522h-57.475v0.043z"/>
     <path d="m3293.4 6166.6h57.522v-57.522h-57.522v0.043z"/>
     <path d="m3388.7 6166.6h57.474v-57.522h-57.475v0.043z"/>
     <path d="m3484 6166.6h57.522v-57.522h-57.522v0.043z"/>
     <path d="m3579.3 6166.6h57.474v-57.522h-57.475v0.043z"/>
     <path d="m3674.6 6166.6h57.522v-57.522h-57.522v0.043z"/>
     <path d="m3769.9 6166.6h57.474v-57.522h-57.474v0.043z"/>
    </g>
    <path d="m2452 6083h1455.2" stroke="#151515" stroke-width="37.119"/>
   </g>
   <g stroke-linecap="round">
    <path d="m2508.7 5940.7h1341.9l7.0929 128.38h-1356.1z" fill="#222" stroke-width="35.268"/>
    <path d="m2712.5 5593.5h934.36l4.9386 80.743h-944.24z" fill="#212121" stroke-width="23.339"/>
    <path d="m2675.7 5669.2h1008l5.3275 161.83h-1018.6z" fill="#222" stroke-width="34.318"/>
    <path d="m2564.3 5814.3h1230.8l6.5057 128.38h-1243.8z" fill="#222" stroke-width="33.777"/>
    <path d="m3092.4 5477.9c51.506-15.04 121.79-13.812 173.64 0 52.279 13.926 127.72 81.588 127.72 81.588h-428.23s78.864-67.568 126.87-81.588z" fill="#151515" stroke-width="15.717"/>
    <path d="m3113.3 5443.2c41.533-11.129 88.675-12.03 133.57 0 11.956 3.2039 8.3947 36.173 8.3947 36.173h-151.2s-2.7854-32.952 9.2346-36.173z" fill="#151515" stroke-width="6.2511"/>
   </g>
   <g fill="#353535">
    <circle cx="2876.3" cy="5739.3" r="39.722"/>
    <circle cx="3483" cy="5739.3" r="39.722"/>
    <path d="m2956.3 5699.6h446.78l2.3649 79.443h-451.5z" stroke-linecap="round" stroke-width="16.008"/>
   </g>
   <g stroke-linecap="round">
    <path d="m3054.9 5719.2h249.54l1.3233 40.338h-252.17z" fill="#151515" stroke-width="8.525"/>
    <path d="m2586.8 5966.9h1185.7l6.2883 26.825h-1198.2z" fill="#171717" stroke-width="15.154"/>
    <path d="m2586.8 6007.4h1185.7l6.2883 47.095h-1198.2z" fill="#171717" stroke-width="20.079"/>
   </g>
   <g fill="#353535">
    <circle cx="2674" cy="6300.4" r="87.02"/>
    <circle cx="3685.3" cy="6300.4" r="87.02"/>
    <path d="m2551.6 6440.8h251.67l15.024 310.82h-278.34z" stroke-linecap="round" stroke-width="25.31"/>
    <path d="m2534.8 6808.5h282l1.5097 648.52h-288.48z" stroke-linecap="round" stroke-width="36.56"/>
   </g>
   <path d="m2523.2 7336.6h305.35l1.6339 47.387h-312.37z" fill="#272727" stroke-linecap="round" stroke-width="10.284"/>
   <g fill="none" stroke-linecap="round" stroke-width="33.348">
    <path d="m2480.5 7274.5h381.26" stroke="#240a79"/>
    <path d="m2480.5 7274.5h381.26" stroke="#1a1a1a"/>
    <path d="m2485.1 6808.5h381.26" stroke="#1a1a1a"/>
   </g>
   <g stroke-linecap="round">
    <path d="m2485.1 6505.2h427.89" fill="#1a1a1a" stroke="#1a1a1a" stroke-width="35.328"/>
    <path d="m3804.9 6440.8h-251.67l-15.024 310.82h278.34z" fill="#353535" stroke-width="25.31"/>
    <path d="m3821.7 6808.5h-282l-1.5097 648.52h288.48z" fill="#353535" stroke-width="36.56"/>
    <path d="m3833.2 7336.6h-305.35l-1.6339 47.387h312.37z" fill="#272727" stroke-width="10.284"/>
   </g>
   <g fill="none" stroke="#1a1a1a" stroke-linecap="round">
    <path d="m3885.1 7274.5h-381.26" stroke-width="33.348"/>
    <path d="m3880.5 6808.5h-381.26" stroke-width="33.348"/>
    <path d="m3880.5 6505.2h-427.89" stroke-width="35.328"/>
   </g>
   <path d="m2904.3 5550.5h550.79l2.9143 49.687h-556.61z" fill="#151515" stroke-linecap="round" stroke-width="14.057"/>
  </g>
  <g transform="matrix(.080545 0 0 .080545 -161 -306.84)">
   <path d="m3249.9 5265.1h53.866l65.671 837.32h-185.21z" fill="#1a1a1a" stroke-opacity="0"/>
   <g fill="#282828">
    <path d="m3251 5265.1h4.6929l-49.893 837.32h-21.594z"/>
    <path d="m3302.7 5265.1h-4.6929l49.893 837.32h21.594z"/>
    <path d="m3260.4 5265.1h4.6927l-26.628 837.32h-21.594z"/>
    <path d="m3269.8 5265.1h4.6929l-3.1418 837.32h-21.594z"/>
    <path d="m3279.2 5265.1h4.6928l21.01 837.32h-21.594z"/>
    <path d="m3288.6 5265.1h4.6927l45.309 837.32h-21.594z"/>
   </g>
   <g fill="#1a1a1a">
    <g stroke-opacity="0">
     <path d="m3196.3 5763.4h158.37c21.504 0-6.9596 61.769-6.9596 61.769h-142.03s-30.886-61.769-9.3817-61.769z"/>
     <path d="m3213.1 5581.8h124.86c16.954 0-5.4871 48.7-5.4871 48.7h-111.98s-24.351-48.7-7.3967-48.7z"/>
     <path d="m3225.8 5454.7h100.32c13.623 0-4.409 39.13-4.409 39.13h-89.972s-19.566-39.13-5.9433-39.13z"/>
     <path d="m3235.4 5354.8h81.51c11.068 0-3.582 31.792-3.582 31.792h-73.1s-15.897-31.792-4.8286-31.792z"/>
    </g>
    <path transform="matrix(17.729 0 0 17.157 1185.1 2760)" d="m116.33 144.76h3.2962v0.98549l-0.26458 0.26458h-2.767l-0.26458-0.26458z"/>
   </g>
  </g>
  <path d="m109.34 81.44c-0.94858 0.0765-1.8866 0.47466-2.3121 1.1324l-4.6512 7.1906-6.3589-5.7465c-1.1788-1.0652-4.0705-0.46384-4.6566 1.0129l-3.1933 8.0466s-4.9435-2.9532-7.4152-4.4298c-1.3518-0.80758-4.0267 0.38081-4.3108 1.9296-0.52116 2.8405-1.5635 8.5216-1.5635 8.5216s-5.4539-1.9425-8.1809-2.9137c-1.4932-0.53184-3.8296 1.2642-3.806 2.8492 0.04254 2.8543 0.12757 8.5628 0.12757 8.5628s-5.6463-0.82916-8.4694-1.2437c-1.5574-0.22869-3.6687 1.7994-3.3386 3.3386 0.61145 2.8512 1.8344 8.5538 1.8344 8.5538l-8.7171 0.44099c-1.5686 0.0794-3.0177 2.6145-2.3952 4.0564l3.4077 7.8924-8.3513 2.1049c-1.5441 0.38918-2.5735 3.1644-1.6692 4.4751l4.8812 7.0748-7.7526 3.6806c-1.4151 0.67183-2.0386 3.5176-0.91449 4.6086l6.2906 6.1058-7.0486 5.2435c-1.2571 0.93516-0.98026 3.8364 0.33529 4.6874l7.1905 4.6512-5.7465 6.359c-1.0652 1.1788-0.46381 4.0704 1.0129 4.6565l8.0466 3.1934-4.4297 7.4151c-0.80757 1.3518 0.38077 4.0268 1.9296 4.3109l8.5215 1.5634-2.9137 8.1809c-0.53184 1.4933 1.2643 3.8297 2.8493 3.8062l8.5628-0.1276-1.2437 8.4694c-0.2287 1.5574 1.7994 3.6685 3.3385 3.3385l8.5539-1.8343 0.44099 8.7171c0.07936 1.5686 2.6146 3.0178 4.0565 2.3953l7.8924-3.4078 2.1049 8.3513c0.3892 1.5442 3.1645 2.5736 4.4752 1.6692l7.0747-4.8812 3.6806 7.7527c0.67183 1.4149 3.5176 2.0386 4.6086 0.91455l6.1058-6.2906 5.2435 7.0486c0.93518 1.2571 3.8365 0.98028 4.6874-0.33531l4.6512-7.1906 6.3589 5.7465c1.1788 1.0653 4.0705 0.46385 4.6566-1.013l3.1933-8.0465 7.4151 4.4297c1.3518 0.80744 4.0268-0.38077 4.3109-1.9296l1.5635-8.5215 8.1809 2.9137c1.4932 0.53187 3.8296-1.2643 3.806-2.8493l-0.12756-8.5627 8.4694 1.2436c1.5574 0.22872 3.6686-1.7994 3.3385-3.3385l-1.8343-8.5539 8.717-0.44099c1.5686-0.0794 3.0177-2.6145 2.3952-4.0564l-3.4077-7.8924 8.3513-2.105c1.5441-0.38921 2.5735-3.1644 1.6692-4.4751l-4.8812-7.0747 7.7526-3.6806c1.4151-0.67184 2.0386-3.5176 0.91449-4.6087l-6.2906-6.1058 7.0658-5.2565c1.2175-0.90576 1.116-3.7247-0.1582-4.5489l-7.3849-4.7768 5.9046-6.5339c1.0175-1.1259 0.36781-3.8708-1.0426-4.4306l-8.175-3.2444 4.5165-7.5602c0.77824-1.3027-0.39438-3.8682-1.887-4.142l-8.6508-1.5872 2.9547-8.2962c0.5091-1.4295-1.1414-3.7168-2.6587-3.6942l-8.7944 0.13095 1.2795-8.7132c0.22048-1.5014-1.8447-3.4228-3.3284-3.1046l-8.5997 1.8442-0.44498-8.7953c-0.0766-1.5155-2.4769-2.9972-3.8701-2.3957l-8.0748 3.4866-2.1524-8.5396c-0.37087-1.4715-3.0141-2.4564-4.2631-1.5946l-7.2394 4.9949-3.777-7.9556c-0.6508-1.3708-3.4353-1.8211-4.4922-0.73223l-6.1259 6.3112-5.2434-7.0486c-0.46758-0.62857-1.4268-0.87368-2.3754-0.79716zm5.9206 17.223a4.7151 4.7151 0 0 1 4.5033 4.9177 4.7151 4.7151 0 0 1-4.9177 4.5034 4.7151 4.7151 0 0 1-4.5034-4.9177 4.7151 4.7151 0 0 1 3.5821-4.3709 4.7151 4.7151 0 0 1 1.3356-0.13243zm-12.51 4.0256 9.0124 9.8029a4.5713 4.5713 0 0 0 6.824-0.10488l7.4714-8.6454a61.601 61.601 0 0 1 40.766 31.54l-7.5651 13.423a4.5713 4.5713 0 0 0 2.2084 6.4575l11.994 5.0504a61.601 61.601 0 0 1 0.26281 3.3392 61.601 61.601 0 0 1-19.108 44.565l-15.122-3.0506a4.5713 4.5713 0 0 0-2.1783 0.0908 4.5713 4.5713 0 0 0-3.2808 4.0049l-1.043 12.333a61.601 61.601 0 0 1-20.869 3.6569 61.601 61.601 0 0 1-30.837-8.4734l-1.502-12.993a4.5713 4.5713 0 0 0-5.5823-3.9262l-9.9303 2.323a61.601 61.601 0 0 1-13.749-38.532 61.601 61.601 0 0 1 1.3629-12.155l10.76-4.9248a4.5713 4.5713 0 0 0 2.009-6.5224l-5.0128-8.2882a61.601 61.601 0 0 1 43.109-28.973zm-48.214 33.552a4.7151 4.7151 0 0 1 1.9838 0.28748 4.7151 4.7151 0 0 1 2.7634 6.0687 4.7151 4.7151 0 0 1-6.0687 2.7633 4.7151 4.7151 0 0 1-2.7632-6.0686 4.7151 4.7151 0 0 1 3.4187-2.9558 4.7151 4.7151 0 0 1 0.66601-0.0951zm115.64 7.464a4.7151 4.7151 0 0 1 4.4715 3.4559 4.7151 4.7151 0 0 1-3.2855 5.8025 4.7151 4.7151 0 0 1-5.8025-3.2854 4.7151 4.7151 0 0 1 3.2854-5.8026 4.7151 4.7151 0 0 1 1.3311-0.17051zm-98.656 60.244a4.7151 4.7151 0 0 1 3.1331 1.0219 4.7151 4.7151 0 0 1 0.75271 6.6256 4.7151 4.7151 0 0 1-6.6255 0.75271 4.7151 4.7151 0 0 1-0.75282-6.6256 4.7151 4.7151 0 0 1 2.1732-1.5284 4.7151 4.7151 0 0 1 1.3193-0.2462zm72.013 6.4336a4.7151 4.7151 0 0 1 3.9947 2.1135 4.7151 4.7151 0 0 1-1.3314 6.5339 4.7151 4.7151 0 0 1-6.5339-1.3315 4.7151 4.7151 0 0 1 1.3314-6.5339 4.7151 4.7151 0 0 1 1.2134-0.57344 4.7151 4.7151 0 0 1 1.3258-0.20851z" fill="url(#linearGradient2261)" stroke-width=".58672" style="font-variation-settings:'wght' 700"/>
 </g>
 <metadata>
  <rdf:RDF>
   <cc:Work rdf:about="">
    <cc:license rdf:resource="http://creativecommons.org/licenses/by-sa/4.0/"/>
    <dc:title>RustDelhi Logo</dc:title>
    <dc:date>Sep 15 2023</dc:date>
    <dc:creator>
     <cc:Agent>
      <dc:title>Ishaan Arora (https://pulsar17.me)</dc:title>
     </cc:Agent>
    </dc:creator>
    <dc:contributor>
     <cc:Agent>
      <dc:title>Yash Raj (https://github.com/yash-raj10), Guinnes Singh (https://github.com/gswebspace)</dc:title>
     </cc:Agent>
    </dc:contributor>
   </cc:Work>
   <cc:License rdf:about="http://creativecommons.org/licenses/by-sa/4.0/">
    <cc:permits rdf:resource="http://creativecommons.org/ns#Reproduction"/>
    <cc:permits rdf:resource="http://creativecommons.org/ns#Distribution"/>
    <cc:requires rdf:resource="http://creativecommons.org/ns#Notice"/>
    <cc:requires rdf:resource="http://creativecommons.org/ns#Attribution"/>
    <cc:permits rdf:resource="http://creativecommons.org/ns#DerivativeWorks"/>
    <cc:requires rdf:resource="http://creativecommons.org/ns#ShareAlike"/>
   </cc:License>
  </rdf:RDF>
 </metadata>
</svg>
